# xmcd
#
# Track frame offsets: 
#        187
#        13631
#        28726
#        33455
#        56618
#        86142
#        101652
#
# Disc length: 1543 seconds
#
# Revision: 3
# Processed by: cddbd v1.5.2PL0 Copyright (c) Steve Scherf et al.
# Submitted via: ExactAudioCopy v1.3
#
DISCID=54060507
DTITLE=Kraftwerk - [CD 5) Computer World
DYEAR=2017
DGENRE=Electro-Pop
TTITLE0=Numbers
TTITLE1=Computer World
TTITLE2=It's More Fun To Compute
TTITLE3=Home Computer
TTITLE4=Computer Love
TTITLE5=Pocket Calculator
TTITLE6=Dentaku
EXTD=
EXTT0=
EXTT1=
EXTT2=
EXTT3=
EXTT4=
EXTT5=
EXTT6=
PLAYORDER=
